<svg width="142" height="40" viewBox="0 0 142 40" fill="none" xmlns="http://www.w3.org/2000/svg">
<g clip-path="url(#clip0_13631_3823)">
<path d="M2.3993 22.2257L1.46006 24.4096H0.542969L4.23373 15.8596H5.24933L8.94009 24.4096H7.98991L7.06188 22.2257H2.3993ZM2.73783 21.4067H6.7124L4.72499 16.7878L2.73783 21.4067ZM14.9937 24.4096H14.142V21.0136C14.142 19.9326 13.5742 19.2447 12.526 19.2447C12.0235 19.2447 11.6087 19.4194 11.2811 19.7797C10.9535 20.1292 10.7898 20.5659 10.7898 21.0901V24.4096H9.93787V18.5786H10.7789V19.6487C11.2373 18.8625 11.9034 18.4694 12.7879 18.4694C14.1856 18.4694 14.9937 19.4085 14.9937 20.8062V24.4096ZM19.6797 16.4929C19.6797 16.1326 19.9635 15.8487 20.313 15.8487C20.6734 15.8487 20.9572 16.1326 20.9572 16.4929C20.9572 16.8424 20.6734 17.1263 20.313 17.1263C19.9635 17.1263 19.6797 16.8424 19.6797 16.4929ZM20.7498 18.5786V24.4096H19.8872V18.5786H20.7498ZM27.7261 24.4096H26.8744V21.0136C26.8744 19.9326 26.3065 19.2447 25.2584 19.2447C24.7559 19.2447 24.341 19.4194 24.0134 19.7797C23.6859 20.1292 23.5222 20.5659 23.5222 21.0901V24.4096H22.6703V18.5786H23.5112V19.6487C23.9697 18.8625 24.6358 18.4694 25.5203 18.4694C26.9179 18.4694 27.7261 19.4085 27.7261 20.8062V24.4096ZM29.3622 16.4929C29.3622 16.1326 29.646 15.8487 29.9955 15.8487C30.3559 15.8487 30.6398 16.1326 30.6398 16.4929C30.6398 16.8424 30.3559 17.1263 29.9955 17.1263C29.646 17.1263 29.3622 16.8424 29.3622 16.4929ZM30.4323 18.5786V24.4096H29.5697V18.5786H30.4323ZM34.3949 24.4533C33.292 24.4533 32.746 23.9401 32.746 22.9027V19.332H31.665V18.5786H32.746V16.897H33.5868V18.5786H35.061V19.332H33.5868V22.8809C33.5868 23.4269 33.9034 23.6999 34.5367 23.6999C34.766 23.6999 34.9409 23.6889 35.061 23.6562V24.3659C34.8752 24.4205 34.6459 24.4533 34.3949 24.4533ZM36.2935 16.4929C36.2935 16.1326 36.5776 15.8487 36.927 15.8487C37.2872 15.8487 37.5713 16.1326 37.5713 16.4929C37.5713 16.8424 37.2872 17.1263 36.927 17.1263C36.5776 17.1263 36.2935 16.8424 36.2935 16.4929ZM37.3638 18.5786V24.4096H36.5009V18.5786H37.3638ZM41.1841 21.0464H42.8004V20.6533C42.8004 19.7033 42.3089 19.2337 41.3152 19.2337C40.5618 19.2337 40.0049 19.6159 39.6447 20.3803L38.9458 19.9872C39.3825 18.9826 40.1797 18.4803 41.3371 18.4803C42.4072 18.4803 43.1171 18.8843 43.4666 19.6814C43.5864 19.9654 43.6412 20.282 43.6412 20.6424V24.4096H42.8114V23.3832H42.8004C42.3199 24.1366 41.6647 24.5079 40.8349 24.5079C40.2561 24.5079 39.7755 24.3441 39.4154 24.0274C39.0549 23.6999 38.8803 23.2849 38.8803 22.7935V22.728C38.8803 22.1493 39.1094 21.7343 39.5681 21.4613C40.0377 21.1884 40.5727 21.0464 41.1841 21.0464ZM42.8004 21.9527V21.7452H41.1735C40.5073 21.7343 39.7646 21.9636 39.732 22.728C39.732 23.3723 40.2561 23.7544 40.9876 23.7544C41.5117 23.7544 41.9485 23.5907 42.287 23.2521C42.6256 22.9136 42.8004 22.4878 42.8004 21.9527ZM47.4791 24.4533C46.3762 24.4533 45.8302 23.9401 45.8302 22.9027V19.332H44.7492V18.5786H45.8302V16.897H46.6712V18.5786H48.1452V19.332H46.6712V22.8809C46.6712 23.4269 46.9878 23.6999 47.6211 23.6999C47.8504 23.6999 48.025 23.6889 48.1452 23.6562V24.3659C47.9596 24.4205 47.7303 24.4533 47.4791 24.4533ZM49.3779 16.4929C49.3779 16.1326 49.6617 15.8487 50.0112 15.8487C50.3716 15.8487 50.6554 16.1326 50.6554 16.4929C50.6554 16.8424 50.3716 17.1263 50.0112 17.1263C49.6617 17.1263 49.3779 16.8424 49.3779 16.4929ZM50.448 18.5786V24.4096H49.5853V18.5786H50.448ZM51.6588 18.5786H52.5978L54.5961 23.4705L56.6271 18.5786H57.5335L55.0438 24.4096H54.1375L51.6588 18.5786ZM63.6968 21.7562H58.9795C59.0123 22.324 59.2307 22.8044 59.6237 23.1866C60.017 23.5688 60.4973 23.7544 61.0651 23.7544C61.8842 23.7544 62.572 23.2849 62.9105 22.5861L63.5438 23.001C63.0525 23.9619 62.1243 24.5079 61.0761 24.5079C60.2353 24.5079 59.5364 24.2131 58.9685 23.6343C58.4009 23.0447 58.1169 22.324 58.1169 21.4832C58.1169 20.6751 58.39 19.9763 58.9359 19.3757C59.4819 18.7751 60.1587 18.4803 60.9559 18.4803C61.8295 18.4803 62.5066 18.7642 62.9869 19.3211C63.4674 19.878 63.7077 20.5878 63.7077 21.4723C63.7077 21.6033 63.7077 21.7016 63.6968 21.7562ZM58.9904 21.0355H62.8451C62.725 19.9435 62.0479 19.2228 60.9559 19.2228C60.4647 19.2228 60.0279 19.3975 59.6565 19.7579C59.2852 20.1073 59.0668 20.5332 58.9904 21.0355ZM70.442 16.2418C69.9179 16.2418 69.4701 16.5694 69.4701 17.4757V18.5786H70.9989V19.3211H69.4701V24.4096H68.6185V19.3211H67.5375V18.5786H68.6185V17.4975C68.6185 16.1872 69.3281 15.4883 70.4091 15.4883C70.6166 15.4883 70.835 15.5211 71.0534 15.5975V16.3182C70.9006 16.2636 70.6932 16.2418 70.442 16.2418ZM72.1496 18.5786H72.9904V19.736C73.3943 18.8952 74.1259 18.4912 74.8686 18.4912C75.0104 18.4912 75.1086 18.4912 75.1524 18.5021V19.4085C75.0104 19.3975 74.9012 19.3866 74.8248 19.3866C74.1915 19.3866 73.7329 19.605 73.4381 20.0309C73.1431 20.4567 73.0013 20.959 73.0013 21.5596V24.4096H72.1496V18.5786ZM78.6721 24.5079C77.8314 24.5079 77.1105 24.2131 76.5317 23.6343C75.9532 23.0556 75.6691 22.3458 75.6691 21.5159C75.6691 20.6533 75.9532 19.9326 76.5317 19.3539C77.1105 18.7751 77.8314 18.4803 78.694 18.4803C79.5347 18.4803 80.2444 18.7751 80.8232 19.3539C81.402 19.9326 81.6968 20.6315 81.6968 21.4723C81.6968 22.3349 81.402 23.0556 80.8232 23.6343C80.2444 24.2131 79.5238 24.5079 78.6721 24.5079ZM78.694 23.7544C79.3054 23.7544 79.8076 23.5361 80.2118 23.0993C80.6157 22.6625 80.8232 22.1384 80.8232 21.5159C80.8232 20.8935 80.6157 20.3475 80.2118 19.8998C79.8076 19.4521 79.2945 19.2228 78.6721 19.2228C78.0498 19.2228 77.5473 19.4412 77.1434 19.878C76.7394 20.3148 76.5427 20.8498 76.5427 21.4723C76.5427 22.0947 76.7394 22.6407 77.1434 23.0884C77.5473 23.5361 78.0714 23.7544 78.694 23.7544ZM88.0125 24.4096H87.1718V20.9918C87.1718 19.9763 86.6694 19.2447 85.665 19.2447C85.1735 19.2447 84.7805 19.4303 84.4855 19.7906C84.1907 20.151 84.0487 20.5878 84.0487 21.0901V24.4096H83.197V18.5786H84.0377V19.5941C84.5292 18.8406 85.0862 18.4694 85.9159 18.4694C86.8005 18.4694 87.4228 18.8625 87.7832 19.6378C88.2854 18.8625 88.9734 18.4803 89.836 18.4803C91.2011 18.4803 91.9874 19.4085 91.9874 20.8062V24.4096H91.1354V21.0136C91.1354 19.9654 90.6442 19.2556 89.6286 19.2556C89.1373 19.2556 88.7441 19.4303 88.4493 19.7797C88.1546 20.1182 88.0125 20.5441 88.0125 21.0573V24.4096Z" fill="#333333"/>
<path d="M141.174 15.5496H138.463C138.291 8.43151 132.471 2.71362 125.319 2.71362C118.167 2.71362 112.347 8.43151 112.175 15.5496H109.484C109.646 6.99236 116.692 2.16938e-05 125.33 2.16938e-05C129.482 -0.00685076 133.469 1.61938 136.433 4.52846C139.397 7.43729 141.1 11.3956 141.174 15.5496Z" fill="#18484C"/>
<path d="M124.22 28.9028V31.6864C116.139 31.1274 109.726 24.4998 109.496 16.3262H112.219C112.368 20.735 114.77 24.752 118.371 27.0001C118.155 26.3353 118.002 25.591 118.002 24.8579V7.12109H120.722V18.141H123.441V20.8645H120.722V24.8579C120.722 26.5348 121.776 27.9829 123.198 28.652C123.519 28.8002 123.866 28.8854 124.22 28.9028Z" fill="#96CA4C"/>
<path d="M141.182 16.1971C141.064 22.138 137.686 27.2773 132.766 29.9003V25.4026C132.766 25.2728 132.757 25.1588 132.757 25.0305C132.757 22.7188 130.85 20.8645 128.541 20.8645H124.216V18.142H127.784C130.092 18.142 131.97 16.3035 131.97 13.9931C131.97 11.6827 130.092 9.84411 127.784 9.84411H121.496V7.12109H127.784C131.597 7.12109 134.701 10.1888 134.701 14.0073C134.701 16.1154 133.754 17.9786 132.265 19.2452C133.867 20.2697 135.097 21.6426 135.227 24.495C137.559 21.9018 138.466 18.4011 138.466 16.1971H141.182Z" fill="#96CA4C"/>
<path d="M111.099 35.2835H109.997C109.98 35.2835 109.963 35.2779 109.949 35.2672C109.935 35.2568 109.925 35.2417 109.92 35.2249L109.57 33.9973C109.566 33.9851 109.566 33.9726 109.568 33.9604C109.57 33.9479 109.575 33.9365 109.583 33.9266C109.59 33.9166 109.6 33.9085 109.611 33.9029C109.623 33.8973 109.635 33.8945 109.647 33.8945H113.853C113.871 33.8945 113.888 33.9003 113.902 33.911C113.916 33.9217 113.926 33.9367 113.931 33.9538L114.269 35.1814C114.272 35.1936 114.273 35.2061 114.27 35.2183C114.268 35.2305 114.263 35.242 114.255 35.2519C114.248 35.2619 114.238 35.2697 114.227 35.2753C114.216 35.2807 114.204 35.2837 114.191 35.2837H112.844C112.822 35.2837 112.802 35.2921 112.787 35.3074C112.772 35.3224 112.763 35.343 112.763 35.3644V39.9165C112.763 39.9379 112.755 39.9585 112.74 39.9736C112.724 39.9888 112.704 39.9972 112.683 39.9972H111.26C111.249 39.9972 111.239 39.9952 111.229 39.9911C111.219 39.987 111.21 39.9812 111.203 39.9738C111.195 39.9662 111.189 39.9573 111.185 39.9476C111.181 39.9377 111.179 39.9272 111.179 39.9165V35.3642C111.179 35.3428 111.171 35.3224 111.156 35.3072C111.141 35.2921 111.12 35.2835 111.099 35.2835Z" fill="#333333"/>
<path d="M117.71 38.9146H115.221C115.207 38.9146 115.193 38.9185 115.181 38.9253C115.169 38.9325 115.159 38.9424 115.152 38.9546L114.565 39.9585C114.558 39.9707 114.548 39.9809 114.536 39.9878C114.524 39.9949 114.51 39.9985 114.496 39.9985H113.047C113.033 39.9985 113.019 39.9949 113.007 39.9878C112.995 39.9806 112.985 39.9704 112.978 39.9582C112.97 39.946 112.967 39.932 112.967 39.918C112.967 39.9038 112.97 39.8898 112.978 39.8775L116.398 33.9311C116.405 33.9189 116.415 33.9087 116.427 33.9016C116.439 33.8944 116.453 33.8906 116.467 33.8906C116.482 33.8906 116.495 33.8944 116.508 33.9016C116.52 33.9087 116.53 33.9189 116.537 33.9311L119.953 39.8778C119.96 39.89 119.964 39.904 119.964 39.918C119.964 39.9323 119.96 39.946 119.953 39.9582C119.946 39.9707 119.936 39.9809 119.924 39.9878C119.911 39.9949 119.897 39.9987 119.883 39.9987H118.435C118.421 39.9987 118.407 39.9949 118.395 39.988C118.382 39.9809 118.372 39.971 118.365 39.9587L117.779 38.9546C117.772 38.9424 117.762 38.9325 117.75 38.9253C117.737 38.9185 117.725 38.9146 117.71 38.9146ZM117.03 37.6664L116.537 36.8226C116.53 36.8106 116.52 36.8005 116.507 36.7936C116.495 36.7865 116.481 36.7829 116.467 36.7827C116.453 36.7827 116.439 36.7865 116.427 36.7933C116.415 36.8005 116.405 36.8104 116.398 36.8226L115.902 37.6661C115.895 37.6784 115.891 37.6924 115.891 37.7066C115.891 37.7209 115.894 37.7349 115.901 37.7471C115.908 37.7596 115.918 37.7697 115.931 37.7769C115.943 37.784 115.957 37.7878 115.971 37.7878H116.96C116.974 37.7878 116.988 37.784 117 37.7769C117.012 37.7697 117.023 37.7596 117.03 37.7473C117.037 37.7349 117.04 37.7209 117.04 37.7069C117.04 37.6926 117.037 37.6786 117.03 37.6664Z" fill="#333333"/>
<path d="M123.893 39.9972H120.319C120.298 39.9972 120.277 39.9888 120.262 39.9736C120.247 39.9585 120.238 39.9379 120.238 39.9165V33.979C120.238 33.9576 120.247 33.9373 120.262 33.922C120.277 33.907 120.298 33.8983 120.319 33.8983L121.742 33.8945C121.752 33.8945 121.763 33.8965 121.773 33.9006C121.782 33.9047 121.791 33.9105 121.799 33.9182C121.806 33.9255 121.812 33.9345 121.816 33.9444C121.82 33.9541 121.822 33.9645 121.822 33.9752V38.523C121.822 38.5446 121.831 38.565 121.846 38.5802C121.861 38.5952 121.882 38.6039 121.903 38.6039H124.267C124.28 38.6039 124.292 38.6067 124.304 38.6123C124.315 38.6182 124.325 38.6263 124.332 38.6365C124.34 38.6467 124.345 38.6584 124.347 38.6706C124.349 38.6831 124.348 38.6958 124.344 38.708L123.97 39.94C123.965 39.9565 123.955 39.971 123.941 39.9815C123.927 39.9916 123.91 39.9972 123.893 39.9972Z" fill="#333333"/>
<path d="M124.797 39.9038V33.9752C124.797 33.9538 124.806 33.9332 124.821 33.9182C124.836 33.9029 124.856 33.8945 124.878 33.8945H126.595C127.105 33.8945 127.556 33.9576 127.947 34.0836C128.332 34.2071 128.634 34.4092 128.853 34.6902C129.068 34.9712 129.176 35.3339 129.176 35.7783C129.174 36.1115 129.076 36.437 128.894 36.7158C128.738 36.9723 128.507 37.1739 128.231 37.292C128.22 37.2964 128.211 37.303 128.203 37.3114C128.195 37.32 128.189 37.33 128.185 37.3412C128.181 37.3521 128.18 37.3638 128.181 37.3755C128.182 37.387 128.186 37.3982 128.192 37.4084L129.672 39.871C129.679 39.8835 129.683 39.8972 129.683 39.9117C129.683 39.926 129.68 39.94 129.673 39.9524C129.666 39.9649 129.656 39.9751 129.643 39.9825C129.631 39.9896 129.617 39.9934 129.603 39.9934H127.94C127.926 39.9934 127.911 39.9893 127.899 39.982C127.886 39.9746 127.876 39.9641 127.869 39.9514L126.399 37.2577H126.381V39.9038C126.381 39.9255 126.373 39.9458 126.357 39.9611C126.342 39.9761 126.322 39.9845 126.3 39.9845H124.878C124.856 39.9845 124.836 39.9761 124.821 39.9611C124.806 39.9458 124.797 39.9255 124.797 39.9038ZM126.381 36.8143C126.381 36.825 126.383 36.8356 126.388 36.8456C126.392 36.8555 126.398 36.8647 126.406 36.8723C126.413 36.8797 126.423 36.8858 126.433 36.8896C126.443 36.8937 126.453 36.8957 126.464 36.8955C126.694 36.8899 126.888 36.8601 127.046 36.8061C127.208 36.7567 127.351 36.6557 127.451 36.518C127.545 36.3861 127.592 36.2156 127.592 36.0061C127.592 35.6907 127.492 35.4759 127.291 35.3611C127.102 35.2545 126.826 35.1972 126.464 35.1898C126.453 35.1896 126.443 35.1916 126.433 35.1957C126.422 35.1997 126.413 35.2056 126.406 35.2132C126.398 35.2209 126.392 35.2298 126.388 35.2397C126.383 35.2496 126.381 35.2603 126.381 35.271V36.8143Z" fill="#333333"/>
<path d="M134.389 34.3263C134.849 34.59 135.233 34.9703 135.5 35.429C135.772 35.8917 135.914 36.4196 135.911 36.9567C135.915 37.4927 135.773 38.0196 135.5 38.4803C135.231 38.9408 134.845 39.3223 134.383 39.5871C133.92 39.8515 133.396 39.9897 132.863 39.9877C132.329 39.989 131.805 39.8505 131.342 39.5863C130.878 39.3218 130.492 38.9405 130.222 38.4803C129.948 38.0196 129.806 37.4927 129.811 36.9567C129.807 36.4196 129.949 35.8917 130.222 35.429C130.491 34.9705 130.876 34.5905 131.337 34.3261C131.802 34.0611 132.328 33.9219 132.863 33.9219C133.398 33.9219 133.924 34.0613 134.389 34.3263ZM132.045 35.4862C131.797 35.6438 131.593 35.8609 131.45 36.1177C131.307 36.3746 131.23 36.6629 131.227 36.9567C131.227 37.2491 131.304 37.5365 131.451 37.7898C131.591 38.0504 131.796 38.2711 132.045 38.4312C132.288 38.5885 132.571 38.672 132.861 38.672C133.15 38.672 133.434 38.5885 133.677 38.4312C133.926 38.2703 134.132 38.0499 134.275 37.7898C134.419 37.5357 134.494 37.2486 134.494 36.9567C134.494 36.6645 134.419 36.3774 134.275 36.1233C134.133 35.8645 133.929 35.6456 133.681 35.4862C133.437 35.3289 133.153 35.2452 132.863 35.2452C132.572 35.2437 132.288 35.3274 132.045 35.4862Z" fill="#333333"/>
<path d="M136.543 39.9168V33.9752C136.543 33.9538 136.552 33.9332 136.567 33.9182C136.582 33.9029 136.602 33.8945 136.624 33.8945H138.473C138.904 33.8945 139.271 33.9261 139.575 33.9892C139.86 34.0424 140.132 34.1506 140.376 34.3073C140.601 34.4578 140.781 34.6675 140.895 34.9139C141.016 35.169 141.077 35.48 141.077 35.847C141.081 36.1273 141.019 36.4047 140.895 36.6557C140.773 36.8939 140.601 37.1024 140.389 37.2663C140.16 37.444 139.899 37.5769 139.62 37.6578C139.318 37.7497 139.003 37.7963 138.687 37.7952H138.212C138.202 37.7952 138.191 37.7975 138.181 37.8016C138.171 37.8057 138.163 37.8115 138.155 37.8192C138.148 37.8266 138.142 37.8355 138.138 37.8454C138.134 37.8551 138.132 37.8658 138.132 37.8762V39.9168C138.132 39.9384 138.123 39.9588 138.108 39.9741C138.093 39.9891 138.072 39.9975 138.051 39.9975H136.624C136.602 39.9975 136.582 39.9891 136.567 39.9741C136.552 39.9588 136.543 39.9384 136.543 39.9168ZM138.132 35.2697V36.42C138.132 36.4414 138.14 36.462 138.155 36.4773C138.17 36.4923 138.191 36.5007 138.212 36.5007H138.587C138.878 36.5007 139.103 36.4434 139.261 36.3286C139.415 36.2169 139.493 36.0535 139.493 35.8386C139.493 35.6291 139.415 35.4688 139.261 35.3568C139.103 35.2448 138.878 35.1891 138.587 35.1891H138.212C138.191 35.1891 138.17 35.1975 138.155 35.2127C138.14 35.2277 138.132 35.2484 138.132 35.2697Z" fill="#333333"/>
</g>
<defs>
<clipPath id="clip0_13631_3823">
<rect width="142" height="40" fill="white"/>
</clipPath>
</defs>
</svg>
